<svg width="184" height="46" fill="none" xmlns="http://www.w3.org/2000/svg"><path fill-rule="evenodd" clip-rule="evenodd" d="M46 23c0 12.703-10.297 23-23 23S0 35.703 0 23 10.297 0 23 0s23 10.297 23 23zM17.582 9.937c1.402-.064 1.85-.08 5.42-.08h-.005c3.57 0 4.017.016 5.419.08 1.4.064 2.355.285 3.192.61a6.423 6.423 0 012.328 1.516 6.452 6.452 0 011.517 2.328c.323.836.545 1.79.61 3.19.063 1.402.08 1.85.08 5.42 0 3.569-.017 4.015-.08 5.417-.065 1.399-.287 2.354-.61 3.19a6.453 6.453 0 01-1.517 2.328 6.431 6.431 0 01-2.327 1.517c-.836.325-1.792.547-3.191.61-1.402.064-1.849.08-5.418.08-3.57 0-4.017-.016-5.42-.08-1.398-.063-2.353-.285-3.19-.61a6.435 6.435 0 01-2.327-1.517 6.44 6.44 0 01-1.516-2.328c-.325-.836-.546-1.79-.61-3.19-.064-1.402-.08-1.848-.08-5.418 0-3.57.017-4.017.08-5.42.062-1.398.284-2.353.61-3.19a6.451 6.451 0 011.517-2.327 6.435 6.435 0 012.328-1.516c.836-.325 1.79-.546 3.19-.61zm4.981 2.289h-.74v-.004c-2.45.003-2.92.02-4.133.074-1.281.06-1.977.273-2.44.453a4.08 4.08 0 00-1.511.984c-.46.46-.746.898-.984 1.511-.18.464-.394 1.16-.453 2.44-.063 1.386-.075 1.8-.075 5.31s.012 3.926.075 5.311c.059 1.282.273 1.977.453 2.44.239.613.523 1.05.983 1.51.46.46.899.745 1.512.983.463.18 1.159.395 2.44.454 1.386.063 1.802.076 5.311.076 3.51 0 3.926-.013 5.311-.076 1.282-.059 1.978-.273 2.44-.453a4.064 4.064 0 001.51-.983c.46-.46.746-.897.984-1.51.18-.463.394-1.158.453-2.44.063-1.385.077-1.801.077-5.309 0-3.507-.014-3.924-.077-5.31-.058-1.28-.273-1.976-.453-2.439a4.078 4.078 0 00-.983-1.511 4.064 4.064 0 00-1.51-.983c-.464-.18-1.16-.394-2.44-.453-1.387-.063-1.803-.075-5.312-.075h-.438zm7.454 2.182a1.577 1.577 0 100 3.154 1.577 1.577 0 000-3.154zM23 16.25a6.75 6.75 0 100 13.499 6.75 6.75 0 000-13.5zm0 2.368a4.381 4.381 0 110 8.762 4.381 4.381 0 010-8.762zM115 23c0 12.703-10.297 23-23 23S69 35.703 69 23 79.297 0 92 0s23 10.297 23 23zm-27.632 3.695l10.158-9.422c.446-.406-.097-.604-.69-.236L84.3 25.167l-5.415-1.738c-1.169-.368-1.177-1.194.263-1.788l21.101-8.362c.964-.45 1.894.238 1.526 1.754l-3.594 17.405c-.25 1.236-.978 1.532-1.985.96l-5.474-4.156-2.631 2.63-.025.024c-.294.295-.538.539-1.07.539l.372-5.74zM184 23c0 12.703-10.297 23-23 23s-23-10.297-23-23 10.297-23 23-23 23 10.297 23 23zm-28.133-9.737c-.032-1.467-1.07-2.584-2.757-2.584-1.686 0-2.789 1.117-2.789 2.584 0 1.437 1.07 2.587 2.725 2.587h.032c1.719 0 2.789-1.15 2.789-2.587zm-.324 4.63h-4.93v14.964h4.93V17.892zm12.102-.352c3.244 0 5.676 2.14 5.676 6.736v8.58h-4.929V24.85c0-2.011-.714-3.383-2.498-3.383-1.362 0-2.174.925-2.53 1.818-.13.32-.162.767-.162 1.214v8.357h-4.931s.065-13.56 0-14.964h4.931v2.12c.654-1.02 1.826-2.472 4.443-2.472z" fill="#3FC2BB"/></svg>